<svg width="21" height="8" viewBox="0 0 21 8" fill="none" xmlns="http://www.w3.org/2000/svg">
<path d="M5.625 5.27L4.745 2.865C4.70167 2.75833 4.65667 2.63167 4.61 2.485C4.56333 2.33833 4.51667 2.18 4.47 2.01C4.42667 2.18 4.38167 2.34 4.335 2.49C4.28833 2.63667 4.24333 2.765 4.2 2.875L3.325 5.27H5.625ZM8 8H6.96C6.84333 8 6.74833 7.97167 6.675 7.915C6.60167 7.855 6.54667 7.78167 6.51 7.695L5.97 6.22H2.975L2.435 7.695C2.40833 7.77167 2.35667 7.84167 2.28 7.905C2.20333 7.96833 2.10833 8 1.995 8H0.945L3.79 0.77H5.16L8 8ZM11.0984 4.405C11.345 4.405 11.56 4.375 11.7434 4.315C11.9267 4.25167 12.0784 4.16333 12.1984 4.05C12.3217 3.93333 12.4134 3.79333 12.4734 3.63C12.5334 3.46333 12.5634 3.27833 12.5634 3.075C12.5634 2.88167 12.5334 2.70667 12.4734 2.55C12.4134 2.39333 12.3234 2.26 12.2034 2.15C12.0834 2.04 11.9317 1.95667 11.7484 1.9C11.565 1.84 11.3484 1.81 11.0984 1.81H10.0934V4.405H11.0984ZM11.0984 0.77C11.5817 0.77 12 0.826666 12.3534 0.94C12.7067 1.05333 12.9984 1.21167 13.2284 1.415C13.4584 1.61833 13.6284 1.86167 13.7384 2.145C13.8517 2.42833 13.9084 2.73833 13.9084 3.075C13.9084 3.425 13.85 3.74667 13.7334 4.04C13.6167 4.33 13.4417 4.58 13.2084 4.79C12.975 5 12.6817 5.16333 12.3284 5.28C11.9784 5.39667 11.5684 5.455 11.0984 5.455H10.0934V8H8.74836V0.77H11.0984ZM17.2898 4.405C17.5364 4.405 17.7514 4.375 17.9348 4.315C18.1181 4.25167 18.2698 4.16333 18.3898 4.05C18.5131 3.93333 18.6048 3.79333 18.6648 3.63C18.7248 3.46333 18.7548 3.27833 18.7548 3.075C18.7548 2.88167 18.7248 2.70667 18.6648 2.55C18.6048 2.39333 18.5148 2.26 18.3948 2.15C18.2748 2.04 18.1231 1.95667 17.9398 1.9C17.7564 1.84 17.5398 1.81 17.2898 1.81H16.2848V4.405H17.2898ZM17.2898 0.77C17.7731 0.77 18.1914 0.826666 18.5448 0.94C18.8981 1.05333 19.1898 1.21167 19.4198 1.415C19.6498 1.61833 19.8198 1.86167 19.9298 2.145C20.0431 2.42833 20.0998 2.73833 20.0998 3.075C20.0998 3.425 20.0414 3.74667 19.9248 4.04C19.8081 4.33 19.6331 4.58 19.3998 4.79C19.1664 5 18.8731 5.16333 18.5198 5.28C18.1698 5.39667 17.7598 5.455 17.2898 5.455H16.2848V8H14.9398V0.77H17.2898Z" fill="#575757"/>
</svg>
