<svg width="1220" height="27" viewBox="0 0 1220 27" fill="none" xmlns="http://www.w3.org/2000/svg">
<line y1="16.5" x2="1224" y2="16.5" stroke="#DDDDDD"/>
<rect x="580" y="6" width="60" height="21" fill="white"/>
<path d="M599.64 12.475H596.16V22H594.713V12.475H591.225V11.2525H599.64V12.475ZM602.291 14.2825C602.846 14.2825 603.346 14.375 603.791 14.56C604.236 14.745 604.616 15.0075 604.931 15.3475C605.246 15.6875 605.486 16.1 605.651 16.585C605.821 17.065 605.906 17.6025 605.906 18.1975C605.906 18.7975 605.821 19.3375 605.651 19.8175C605.486 20.2975 605.246 20.7075 604.931 21.0475C604.616 21.3875 604.236 21.65 603.791 21.835C603.346 22.015 602.846 22.105 602.291 22.105C601.731 22.105 601.226 22.015 600.776 21.835C600.331 21.65 599.951 21.3875 599.636 21.0475C599.321 20.7075 599.079 20.2975 598.909 19.8175C598.744 19.3375 598.661 18.7975 598.661 18.1975C598.661 17.6025 598.744 17.065 598.909 16.585C599.079 16.1 599.321 15.6875 599.636 15.3475C599.951 15.0075 600.331 14.745 600.776 14.56C601.226 14.375 601.731 14.2825 602.291 14.2825ZM602.291 21.0625C603.041 21.0625 603.601 20.8125 603.971 20.3125C604.341 19.8075 604.526 19.105 604.526 18.205C604.526 17.3 604.341 16.595 603.971 16.09C603.601 15.585 603.041 15.3325 602.291 15.3325C601.911 15.3325 601.579 15.3975 601.294 15.5275C601.014 15.6575 600.779 15.845 600.589 16.09C600.404 16.335 600.264 16.6375 600.169 16.9975C600.079 17.3525 600.034 17.755 600.034 18.205C600.034 19.105 600.219 19.8075 600.589 20.3125C600.964 20.8125 601.531 21.0625 602.291 21.0625ZM612.549 16.21C612.299 15.875 612.029 15.6425 611.739 15.5125C611.449 15.3775 611.124 15.31 610.764 15.31C610.059 15.31 609.517 15.5625 609.137 16.0675C608.757 16.5725 608.567 17.2925 608.567 18.2275C608.567 18.7225 608.609 19.1475 608.694 19.5025C608.779 19.8525 608.904 20.1425 609.069 20.3725C609.234 20.5975 609.437 20.7625 609.677 20.8675C609.917 20.9725 610.189 21.025 610.494 21.025C610.934 21.025 611.317 20.925 611.642 20.725C611.972 20.525 612.274 20.2425 612.549 19.8775V16.21ZM613.884 10.9525V22H613.089C612.899 22 612.779 21.9075 612.729 21.7225L612.609 20.8C612.284 21.19 611.914 21.505 611.499 21.745C611.084 21.985 610.604 22.105 610.059 22.105C609.624 22.105 609.229 22.0225 608.874 21.8575C608.519 21.6875 608.217 21.44 607.967 21.115C607.717 20.79 607.524 20.385 607.389 19.9C607.254 19.415 607.187 18.8575 607.187 18.2275C607.187 17.6675 607.262 17.1475 607.412 16.6675C607.562 16.1825 607.777 15.7625 608.057 15.4075C608.337 15.0525 608.679 14.775 609.084 14.575C609.494 14.37 609.954 14.2675 610.464 14.2675C610.929 14.2675 611.327 14.3475 611.657 14.5075C611.992 14.6625 612.289 14.88 612.549 15.16V10.9525H613.884ZM620.111 18.58C619.496 18.6 618.971 18.65 618.536 18.73C618.106 18.805 617.753 18.905 617.478 19.03C617.208 19.155 617.011 19.3025 616.886 19.4725C616.766 19.6425 616.706 19.8325 616.706 20.0425C616.706 20.2425 616.738 20.415 616.803 20.56C616.868 20.705 616.956 20.825 617.066 20.92C617.181 21.01 617.313 21.0775 617.463 21.1225C617.618 21.1625 617.783 21.1825 617.958 21.1825C618.193 21.1825 618.408 21.16 618.603 21.115C618.798 21.065 618.981 20.995 619.151 20.905C619.326 20.815 619.491 20.7075 619.646 20.5825C619.806 20.4575 619.961 20.315 620.111 20.155V18.58ZM615.798 15.475C616.218 15.07 616.671 14.7675 617.156 14.5675C617.641 14.3675 618.178 14.2675 618.768 14.2675C619.193 14.2675 619.571 14.3375 619.901 14.4775C620.231 14.6175 620.508 14.8125 620.733 15.0625C620.958 15.3125 621.128 15.615 621.243 15.97C621.358 16.325 621.416 16.715 621.416 17.14V22H620.823C620.693 22 620.593 21.98 620.523 21.94C620.453 21.895 620.398 21.81 620.358 21.685L620.208 20.965C620.008 21.15 619.813 21.315 619.623 21.46C619.433 21.6 619.233 21.72 619.023 21.82C618.813 21.915 618.588 21.9875 618.348 22.0375C618.113 22.0925 617.851 22.12 617.561 22.12C617.266 22.12 616.988 22.08 616.728 22C616.468 21.915 616.241 21.79 616.046 21.625C615.856 21.46 615.703 21.2525 615.588 21.0025C615.478 20.7475 615.423 20.4475 615.423 20.1025C615.423 19.8025 615.506 19.515 615.671 19.24C615.836 18.96 616.103 18.7125 616.473 18.4975C616.843 18.2825 617.326 18.1075 617.921 17.9725C618.516 17.8325 619.246 17.7525 620.111 17.7325V17.14C620.111 16.55 619.983 16.105 619.728 15.805C619.473 15.5 619.101 15.3475 618.611 15.3475C618.281 15.3475 618.003 15.39 617.778 15.475C617.558 15.555 617.366 15.6475 617.201 15.7525C617.041 15.8525 616.901 15.945 616.781 16.03C616.666 16.11 616.551 16.15 616.436 16.15C616.346 16.15 616.268 16.1275 616.203 16.0825C616.138 16.0325 616.083 15.9725 616.038 15.9025L615.798 15.475ZM629.828 14.4025L625.591 24.2425C625.546 24.3425 625.488 24.4225 625.418 24.4825C625.353 24.5425 625.251 24.5725 625.111 24.5725H624.121L625.508 21.5575L622.373 14.4025H623.528C623.643 14.4025 623.733 14.4325 623.798 14.4925C623.868 14.5475 623.916 14.61 623.941 14.68L625.973 19.465C626.053 19.675 626.121 19.895 626.176 20.125C626.246 19.89 626.321 19.6675 626.401 19.4575L628.373 14.68C628.403 14.6 628.453 14.535 628.523 14.485C628.598 14.43 628.681 14.4025 628.771 14.4025H629.828Z" fill="black"/>
</svg>
