<svg width="11" height="13" viewBox="0 0 11 13" fill="none" xmlns="http://www.w3.org/2000/svg">
<path fill-rule="evenodd" clip-rule="evenodd" d="M9.66813 6.32227C9.90721 6.32227 10.1103 6.40176 10.2776 6.56087C10.445 6.71997 10.5289 6.91317 10.5287 7.14039V12.0495C10.5287 12.2767 10.445 12.47 10.2778 12.6291C10.1105 12.7882 9.90743 12.8677 9.66835 12.8677H1.06536C0.826469 12.8677 0.623294 12.7881 0.455995 12.6291C0.288727 12.47 0.205078 12.2767 0.205078 12.0495V7.14048C0.205078 6.91308 0.288696 6.71985 0.455995 6.56087C0.623294 6.40176 0.826469 6.32227 1.06536 6.32227H1.35209V4.68581C1.35209 3.64035 1.7463 2.74273 2.53496 1.9927C3.32349 1.24269 4.26746 0.867676 5.36686 0.867676C6.46629 0.867676 7.41007 1.24269 8.19866 1.99273C8.98732 2.74273 9.38152 3.64038 9.38152 4.68581V6.32227H9.66813ZM3.07261 6.32246H7.66087V4.68601C7.66087 4.08377 7.43682 3.56949 6.98888 3.14346C6.54072 2.71731 6.00022 2.50432 5.36684 2.50432C4.73352 2.50432 4.19289 2.71734 3.74476 3.14346C3.29669 3.56952 3.07261 4.08377 3.07261 4.68601V6.32246Z" fill="#1D1C1D"/>
</svg>
