<svg width="39" height="15" viewBox="0 0 39 15" fill="none" xmlns="http://www.w3.org/2000/svg">
<path d="M8.64 2.475H5.16V12H3.7125V2.475H0.225V1.2525H8.64V2.475ZM11.2913 4.2825C11.8463 4.2825 12.3463 4.375 12.7913 4.56C13.2363 4.745 13.6163 5.0075 13.9313 5.3475C14.2463 5.6875 14.4863 6.1 14.6513 6.585C14.8213 7.065 14.9063 7.6025 14.9063 8.1975C14.9063 8.7975 14.8213 9.3375 14.6513 9.8175C14.4863 10.2975 14.2463 10.7075 13.9313 11.0475C13.6163 11.3875 13.2363 11.65 12.7913 11.835C12.3463 12.015 11.8463 12.105 11.2913 12.105C10.7313 12.105 10.2263 12.015 9.77625 11.835C9.33125 11.65 8.95125 11.3875 8.63625 11.0475C8.32125 10.7075 8.07875 10.2975 7.90875 9.8175C7.74375 9.3375 7.66125 8.7975 7.66125 8.1975C7.66125 7.6025 7.74375 7.065 7.90875 6.585C8.07875 6.1 8.32125 5.6875 8.63625 5.3475C8.95125 5.0075 9.33125 4.745 9.77625 4.56C10.2263 4.375 10.7313 4.2825 11.2913 4.2825ZM11.2913 11.0625C12.0413 11.0625 12.6013 10.8125 12.9713 10.3125C13.3413 9.8075 13.5263 9.105 13.5263 8.205C13.5263 7.3 13.3413 6.595 12.9713 6.09C12.6013 5.585 12.0413 5.3325 11.2913 5.3325C10.9113 5.3325 10.5788 5.3975 10.2938 5.5275C10.0138 5.6575 9.77875 5.845 9.58875 6.09C9.40375 6.335 9.26375 6.6375 9.16875 6.9975C9.07875 7.3525 9.03375 7.755 9.03375 8.205C9.03375 9.105 9.21875 9.8075 9.58875 10.3125C9.96375 10.8125 10.5313 11.0625 11.2913 11.0625ZM21.5495 6.21C21.2995 5.875 21.0295 5.6425 20.7395 5.5125C20.4495 5.3775 20.1245 5.31 19.7645 5.31C19.0595 5.31 18.517 5.5625 18.137 6.0675C17.757 6.5725 17.567 7.2925 17.567 8.2275C17.567 8.7225 17.6095 9.1475 17.6945 9.5025C17.7795 9.8525 17.9045 10.1425 18.0695 10.3725C18.2345 10.5975 18.437 10.7625 18.677 10.8675C18.917 10.9725 19.1895 11.025 19.4945 11.025C19.9345 11.025 20.317 10.925 20.642 10.725C20.972 10.525 21.2745 10.2425 21.5495 9.8775V6.21ZM22.8845 0.9525V12H22.0895C21.8995 12 21.7795 11.9075 21.7295 11.7225L21.6095 10.8C21.2845 11.19 20.9145 11.505 20.4995 11.745C20.0845 11.985 19.6045 12.105 19.0595 12.105C18.6245 12.105 18.2295 12.0225 17.8745 11.8575C17.5195 11.6875 17.217 11.44 16.967 11.115C16.717 10.79 16.5245 10.385 16.3895 9.9C16.2545 9.415 16.187 8.8575 16.187 8.2275C16.187 7.6675 16.262 7.1475 16.412 6.6675C16.562 6.1825 16.777 5.7625 17.057 5.4075C17.337 5.0525 17.6795 4.775 18.0845 4.575C18.4945 4.37 18.9545 4.2675 19.4645 4.2675C19.9295 4.2675 20.327 4.3475 20.657 4.5075C20.992 4.6625 21.2895 4.88 21.5495 5.16V0.9525H22.8845ZM29.1105 8.58C28.4955 8.6 27.9705 8.65 27.5355 8.73C27.1055 8.805 26.753 8.905 26.478 9.03C26.208 9.155 26.0105 9.3025 25.8855 9.4725C25.7655 9.6425 25.7055 9.8325 25.7055 10.0425C25.7055 10.2425 25.738 10.415 25.803 10.56C25.868 10.705 25.9555 10.825 26.0655 10.92C26.1805 11.01 26.313 11.0775 26.463 11.1225C26.618 11.1625 26.783 11.1825 26.958 11.1825C27.193 11.1825 27.408 11.16 27.603 11.115C27.798 11.065 27.9805 10.995 28.1505 10.905C28.3255 10.815 28.4905 10.7075 28.6455 10.5825C28.8055 10.4575 28.9605 10.315 29.1105 10.155V8.58ZM24.798 5.475C25.218 5.07 25.6705 4.7675 26.1555 4.5675C26.6405 4.3675 27.178 4.2675 27.768 4.2675C28.193 4.2675 28.5705 4.3375 28.9005 4.4775C29.2305 4.6175 29.508 4.8125 29.733 5.0625C29.958 5.3125 30.128 5.615 30.243 5.97C30.358 6.325 30.4155 6.715 30.4155 7.14V12H29.823C29.693 12 29.593 11.98 29.523 11.94C29.453 11.895 29.398 11.81 29.358 11.685L29.208 10.965C29.008 11.15 28.813 11.315 28.623 11.46C28.433 11.6 28.233 11.72 28.023 11.82C27.813 11.915 27.588 11.9875 27.348 12.0375C27.113 12.0925 26.8505 12.12 26.5605 12.12C26.2655 12.12 25.988 12.08 25.728 12C25.468 11.915 25.2405 11.79 25.0455 11.625C24.8555 11.46 24.703 11.2525 24.588 11.0025C24.478 10.7475 24.423 10.4475 24.423 10.1025C24.423 9.8025 24.5055 9.515 24.6705 9.24C24.8355 8.96 25.103 8.7125 25.473 8.4975C25.843 8.2825 26.3255 8.1075 26.9205 7.9725C27.5155 7.8325 28.2455 7.7525 29.1105 7.7325V7.14C29.1105 6.55 28.983 6.105 28.728 5.805C28.473 5.5 28.1005 5.3475 27.6105 5.3475C27.2805 5.3475 27.003 5.39 26.778 5.475C26.558 5.555 26.3655 5.6475 26.2005 5.7525C26.0405 5.8525 25.9005 5.945 25.7805 6.03C25.6655 6.11 25.5505 6.15 25.4355 6.15C25.3455 6.15 25.268 6.1275 25.203 6.0825C25.138 6.0325 25.083 5.9725 25.038 5.9025L24.798 5.475ZM38.8283 4.4025L34.5908 14.2425C34.5458 14.3425 34.4883 14.4225 34.4183 14.4825C34.3533 14.5425 34.2508 14.5725 34.1108 14.5725H33.1208L34.5083 11.5575L31.3733 4.4025H32.5283C32.6433 4.4025 32.7333 4.4325 32.7983 4.4925C32.8683 4.5475 32.9158 4.61 32.9408 4.68L34.9733 9.465C35.0533 9.675 35.1208 9.895 35.1758 10.125C35.2458 9.89 35.3208 9.6675 35.4008 9.4575L37.3733 4.68C37.4033 4.6 37.4533 4.535 37.5233 4.485C37.5983 4.43 37.6808 4.4025 37.7708 4.4025H38.8283Z" fill="black"/>
</svg>
